# xmcd
#
# Track frame offsets: 
#        150
#        22971
#        57524
#        81789
#        110438
#        149669
#        184985
#        226096
#        279196
#
# Disc length: 4244 seconds
#
# Revision: 0
# Processed by: cddbd v1.4PL0 Copyright (c) Steve Scherf et al.
# Submitted via: ExactAudioCopy v0.90b3
#
DISCID=76109209
DTITLE=Ruby Turner - Live In Bristol
DYEAR=2001
DGENRE=R&B
TTITLE0=On the defence
TTITLE1=My intuition tells me
TTITLE2=Let me show you (my mistakes)
TTITLE3=Restless moods
TTITLE4=Breath I need
TTITLE5=Still on my mind
TTITLE6=I'd rather go blind
TTITLE7=If you're ready (come go with me)
TTITLE8=Signed sealed delivered
EXTD=
EXTT0=
EXTT1=
EXTT2=
EXTT3=
EXTT4=
EXTT5=
EXTT6=
EXTT7=
EXTT8=
PLAYORDER=
